<svg width="16" height="16" viewBox="0 0 16 16" fill="none" xmlns="http://www.w3.org/2000/svg">
  <path d="M15.9156 7.9578C15.9156 12.3528 12.3528 15.9157 7.95785 15.9157C3.56283 15.9157 0 12.3528 0 7.9578C0 3.56283 3.56283 0 7.95785 0C12.3528 0 15.9156 3.56283 15.9156 7.9578Z" fill="#919191"/>
  <path d="M8.0718 8.22216L7.35028 10.5045H11.2096C11.2351 10.5036 11.2606 10.5075 11.2846 10.5159C11.3085 10.5244 11.3305 10.5371 11.3492 10.5535C11.3679 10.5699 11.383 10.5895 11.3936 10.6114C11.4042 10.6332 11.41 10.6568 11.4109 10.6808V10.7406L11.0753 11.8267C11.0605 11.878 11.0276 11.9231 10.9818 11.9546C10.9361 11.9861 10.8803 12.002 10.8236 11.9998H4.91726L5.90725 8.83603L4.7998 9.15083L5.0515 8.42678L6.15894 8.11198L7.55164 3.67325C7.56697 3.62218 7.60008 3.57739 7.64569 3.54601C7.6913 3.51464 7.74679 3.49848 7.80333 3.50011H9.2967C9.32227 3.49927 9.34776 3.50317 9.37172 3.51157C9.39568 3.51998 9.41763 3.53273 9.43633 3.54911C9.45503 3.56548 9.47011 3.58515 9.4807 3.60699C9.49129 3.62883 9.49719 3.65242 9.49806 3.6764V3.73622L8.32349 7.48237L9.43094 7.16757L9.19603 7.9231L8.0718 8.22216Z" fill="white"/>
</svg>
